<svg width="43" height="43" viewBox="0 0 43 43" fill="none" xmlns="http://www.w3.org/2000/svg">
<path d="M7.525 4.2998C3.39335 4.2998 0 7.69315 0 11.8248V31.1748C0 35.3065 3.39335 38.6998 7.525 38.6998H35.475C39.6067 38.6998 43 35.3065 43 31.1748V11.8248C43 7.69315 39.6067 4.2998 35.475 4.2998H7.525ZM35.6136 8.6084L23.4484 20.6476C22.125 21.958 20.875 21.958 19.5516 20.6476L7.38642 8.6084C17.0319 8.5912 26.9362 8.59765 35.6136 8.6084ZM4.3126 11.6106L16.5239 23.7044C19.2737 26.4271 23.7263 26.4271 26.4761 23.7044L38.6874 11.6106C38.7153 18.1098 38.7001 24.6586 38.7001 31.1748C38.7001 32.9987 37.2989 34.3998 35.4751 34.3998H7.52509C5.70125 34.3998 4.30009 32.9987 4.30009 31.1748C4.31322 24.6605 4.27584 18.108 4.3126 11.6106Z" fill="white"/>
</svg>
